# xmcd
#
# Track frame offsets: 
#        150
#        2525
#        14252
#        25690
#        41799
#        59891
#        81639
#        100022
#        113376
#        132787
#        149332
#        166495
#        187036
#        206639
#        221088
#
# Disc length: 3234 seconds
#
# Revision: 1
# Processed by: cddbd v1.5.2PL0 Copyright (c) Steve Scherf et al.
# Submitted via: ExactAudioCopy v1.3
#
DISCID=d30ca00f
DTITLE=Raphael Saadiq - As Ray Ray
DYEAR=2004
DGENRE=R&B
TTITLE0=Blaxploitation
TTITLE1=Ray Ray Theme (Ft. Joi)
TTITLE2=I Know Shuggie Otis
TTITLE3=This One
TTITLE4=Chic Like You (Ft. Allie Baba)
TTITLE5=Live Without You
TTITLE6=Detroit Girl
TTITLE7=Not A Game (Ft. Babyface)
TTITLE8=Rifle Love (Ft. Tony Toni Tone and Lucy Pearl)
TTITLE9=Chic (Ft.Teedra Moses)
TTITLE10=I Want You Back (Ft. Teedra Moses)
TTITLE11=I Love Her
TTITLE12=Growm Folks
TTITLE13=Save Us
TTITLE14=Screams (Bonus Track)
EXTD=
EXTT0=
EXTT1=
EXTT2=
EXTT3=
EXTT4=
EXTT5=
EXTT6=
EXTT7=
EXTT8=
EXTT9=
EXTT10=
EXTT11=
EXTT12=
EXTT13=
EXTT14=
PLAYORDER=
